<?xml version="1.0" encoding="UTF-8"?>
<svg id="Layer_1" data-name="Layer 1" xmlns="http://www.w3.org/2000/svg" viewBox="0 0 921.53 624.1">
  <defs>
    <style>
      .cls-1 {
        fill: #e55c17;
      }
    </style>
  </defs>
  <path class="cls-1" d="M0,303.86C0,198.54,76.86,127.38,179.33,127.38s182.18,71.16,182.18,176.48-78.28,177.9-185.02,177.9h-12.1l-28.46-104.61h32.02c48.39,0,82.55-29.89,82.55-73.3,0-38.43-27.04-70.45-69.74-70.45-38.43,0-71.16,26.33-71.16,75.43v315.25H0v-320.23Z"/>
  <path class="cls-1" d="M449.02,310.27l-125.96-174.35h126.67l69.03,99.63,65.47-99.63h125.25l-125.96,175.06,124.53,170.79h-123.82l-69.03-96.78-67.6,96.78h-123.11l124.54-171.5Z"/>
  <path class="cls-1" d="M841.83,0h79.7v96.78h-61.2c-21.35,0-28.46,9.25-28.46,27.75v18.5h81.13v101.76h-81.13v236.97h-109.59V119.55c0-65.47,33.45-119.55,119.55-119.55Z"/>
</svg>