<?xml version="1.0" encoding="UTF-8"?>
<svg id="Layer_1" data-name="Layer 1" xmlns="http://www.w3.org/2000/svg" viewBox="0 0 1024 1024">
  <defs>
    <style>
      .cls-1 {
        fill: #e55c17;
      }

      .cls-2 {
        fill: #0d365e;
      }
    </style>
  </defs>
  <rect class="cls-2" width="1024" height="1024" rx="50.23" ry="50.23"/>
  <g>
    <path class="cls-1" d="M51.24,503.82c0-105.32,76.86-176.48,179.33-176.48s182.18,71.16,182.18,176.48-78.28,177.9-185.02,177.9h-12.1l-28.46-104.61h32.02c48.39,0,82.55-29.89,82.55-73.3,0-38.43-27.04-70.45-69.74-70.45-38.43,0-71.16,26.33-71.16,75.43v315.25H51.24v-320.23Z"/>
    <path class="cls-1" d="M500.26,510.22l-125.96-174.35h126.67l69.03,99.63,65.47-99.63h125.25l-125.96,175.06,124.53,170.79h-123.82l-69.03-96.78-67.6,96.78h-123.11l124.54-171.5Z"/>
    <path class="cls-1" d="M893.06,199.95h79.7v96.78h-61.2c-21.35,0-28.46,9.25-28.46,27.75v18.5h81.13v101.76h-81.13v236.97h-109.59v-362.22c0-65.47,33.45-119.55,119.55-119.55Z"/>
  </g>
</svg>